# xmcd
#
# Track frame offsets:
#	150
#	13352
#	18970
#	25565
#	31545
#	41962
#	46955
#	54592
#	59265
#	64112
#	69312
#	74372
#	78275
#	83017
#	89630
#	95480
#	107127
#	115735
#	121605
#	127160
#	133087
#	140350
#	147702
#	153272
#	159600
#	165305
#	170297
#	175427
#	182752
#	186757
#	192395
#	199442
#	211860
#	218045
#	221680
#	226797
#	232640
#	237472
#	243802
#	248405
#	263135
#
# Disc length: 3611 seconds
#
# Revision: 0
# Processed by: cddbd v1.5.1PL0 Copyright (c) Steve Scherf et al.
# Submitted via: dBpowerAMP V4.0
#
DISCID=3a0e1929
DTITLE=Mrs. Ippy Country Band - Ultimate Non-Stop Line Dance Album 
DYEAR=1998
DGENRE=Country
TTITLE0=Swamp Thing
TTITLE1=What The Cowgirs Do
TTITLE2=HillBilly Rock Hilbilly Roll
TTITLE3=Line Dance Crazy
TTITLE4=No-One Else On Earth
TTITLE5=Fever
TTITLE6=Smokey Places
TTITLE7=Rocky top
TTITLE8=If I Aint Got You
TTITLE9=Stru Your Stuff
TTITLE10=I Like It, I love It
TTITLE11=Funky Cowboy
TTITLE12=Highway Patrol
TTITLE13=Girls With Guitars
TTITLE14=Blame It On Texas
TTITLE15=A Little Less Talk And A Lot More Action
TTITLE16=Cotton Eye Joe
TTITLE17=Copperhead Road
TTITLE18=One Way Ticket
TTITLE19=Macarena
TTITLE20=Ring Of Fire
TTITLE21=Electric Boogie
TTITLE22=Honky Tonk Twist
TTITLE23=High Tech Redneck
TTITLE24=Boot Scootin' Boogie
TTITLE25=Watermelon Crawl
TTITLE26=Hearts Are Gonna Roll
TTITLE27=Hillbilly Highway
TTITLE28=Out With A Bang
TTITLE29=Highways And Heartaches
TTITLE30=Honkytonk Dancing Machine
TTITLE31=Why Me?
TTITLE32=Dance! Shout!
TTITLE33=Small Town Saturday Night
TTITLE34=Dancin' Shoes
TTITLE35=Good Girls Love Bad Boys
TTITLE36=Cotton County Queen
TTITLE37=Workin For The Weekend
TTITLE38=Jose Cuervo
TTITLE39=Achy Breaky Heart
TTITLE40=Swamp Thing (Reprise)
EXTD=
EXTT0=
EXTT1=
EXTT2=
EXTT3=
EXTT4=
EXTT5=
EXTT6=
EXTT7=
EXTT8=
EXTT9=
EXTT10=
EXTT11=
EXTT12=
EXTT13=
EXTT14=
EXTT15=
EXTT16=
EXTT17=
EXTT18=
EXTT19=
EXTT20=
EXTT21=
EXTT22=
EXTT23=
EXTT24=
EXTT25=
EXTT26=
EXTT27=
EXTT28=
EXTT29=
EXTT30=
EXTT31=
EXTT32=
EXTT33=
EXTT34=
EXTT35=
EXTT36=
EXTT37=
EXTT38=
EXTT39=
EXTT40=
PLAYORDER=
